<svg id="Layer_1" data-name="Layer 1" xmlns="http://www.w3.org/2000/svg" viewBox="0 0 703.06 104.3"><defs><style>.cls-1{fill:#754c28;}.cls-2,.cls-8{fill:#b91e4d;}.cls-3{fill:#e02d74;}.cls-4{fill:none;stroke:#fff;stroke-linecap:round;stroke-linejoin:round;stroke-width:4.44px;}.cls-5{fill:#fff;}.cls-6{fill:#a87c4f;}.cls-7,.cls-9{fill:#00a4a9;stroke:#00a4a9;}.cls-7,.cls-8,.cls-9{stroke-miterlimit:10;}.cls-7{stroke-width:0.69px;}.cls-8{stroke:#b91e4d;}.cls-8,.cls-9{stroke-width:1.34px;}</style></defs><title>heart-icon</title><circle class="cls-1" cx="52.15" cy="52.15" r="52.15"/><path class="cls-2" d="M132.35,296c-1-7.39-5.47-12.7-12.78-15.32-7-2.51-13.34-.71-18.77,4a53.42,53.42,0,0,0-4.29,4.57v53l.58-.49c6.67-6,13.38-11.87,20-17.89a66.15,66.15,0,0,0,11.38-12.68C131.46,306.48,133.09,301.38,132.35,296Z" transform="translate(-44.36 -255)"/><path class="cls-3" d="M96.36,289.37c-.56-.74-1.09-1.5-1.7-2.21-4.79-5.56-10.85-8.54-18.48-7.25a18.86,18.86,0,0,0-15.31,22.36,28.12,28.12,0,0,0,8.3,14.78c8.85,8.57,18,16.88,27.06,25.38l.28-.23v-53Z" transform="translate(-44.36 -255)"/><path class="cls-4" d="M132.35,296c-1-7.39-5.47-12.7-12.78-15.32-7-2.51-13.34-.71-18.77,4a53.42,53.42,0,0,0-4.29,4.57l-.15.17c-.56-.74-1.09-1.5-1.7-2.21-4.79-5.56-10.85-8.54-18.48-7.25a18.86,18.86,0,0,0-15.31,22.36,28.12,28.12,0,0,0,8.3,14.78c8.85,8.57,18,16.88,27.06,25.38l.28-.23.58-.49c6.67-6,13.38-11.87,20-17.89a66.15,66.15,0,0,0,11.38-12.68C131.46,306.48,133.09,301.38,132.35,296Z" transform="translate(-44.36 -255)"/><polygon class="cls-5" points="154.26 22.99 145.79 26.88 139.16 28.48 136.87 23.44 140.76 13.15 147.4 6.06 155.86 3.54 163.18 5.6 166.84 9.49 175.99 8.12 186.29 7.43 194.53 9.95 200.7 7.2 207.34 3.31 213.74 4.22 221.52 10.63 227.24 20.24 228.38 26.42 223.35 29.16 214.2 23.67 205.05 16.81 211.23 30.77 218.09 55.7 219.69 75.15 215.34 86.59 205.51 95.97 192.01 100.54 174.62 100.09 157.69 95.05 149.22 84.99 143.73 69.2 147.17 52.04 154.26 22.99"/><path class="cls-6" d="M275.4,278c-1.4-8-9.37-19.33-17.18-21.54-10.35-2.94-17,5.14-17.74,6.07a26.43,26.43,0,0,0-13.42-2.8,26.23,26.23,0,0,0-13.43,2.8c-.72-.93-7.38-9-17.74-6.07-7.8,2.21-15.77,13.59-17.17,21.54-.84,4.79.87,7.15,2.45,8.29a6.25,6.25,0,0,0,3.72,1.27c3,0,5.8-2.2,8.2-4.07a26,26,0,0,1,4.5-3c-.56,1.24-1.1,2.52-1.6,3.87-10.47,28.43-11.42,48.26-2.88,60.64,6,8.66,16.48,13.34,31.25,13.9l3.11.08,2.72,0v-.07c14.54-.65,24.9-5.31,30.82-13.89,8.53-12.38,7.59-32.21-2.88-60.64-.5-1.34-1-2.62-1.6-3.87a25.61,25.61,0,0,1,4.5,3c2.4,1.86,5.22,4.06,8.2,4.06a6.27,6.27,0,0,0,3.72-1.27C274.53,285.13,276.24,282.77,275.4,278Zm-85.65,1.21c-3,2.36-4.53,3.31-5.42,2.68-.33-.25-.56-1.27-.26-2.95,1.06-6.07,7.83-15.71,13.3-17.26,6.07-1.71,10.34,2.34,11.6,3.75a34.65,34.65,0,0,0-8.2,9.11C196.46,274,192.79,276.82,189.75,279.18Zm66.79,62.68c-4.94,7.17-14.05,11-27,11.52v-14.1l7.64-9.37a8.16,8.16,0,0,0-6.32-13.32h-8.08a8.16,8.16,0,0,0-6.32,13.32l7.65,9.37v14.08c-12.7-.58-21.66-4.42-26.55-11.5-7.45-10.82-6.31-29,3.51-55.68,3.07-8.34,7.49-14.33,13.13-17.81a21.78,21.78,0,0,1,11.3-3.3c.57,0,1,0,1.31.05l.24,0,.24,0a21.31,21.31,0,0,1,12.61,3.25c5.64,3.48,10.05,9.47,13.12,17.81C262.85,312.83,264,331,256.54,341.86Zm13.24-60c-.87.63-2.38-.31-5.42-2.68s-6.71-5.18-11-4.67a34.83,34.83,0,0,0-8.2-9.11c1.26-1.41,5.53-5.46,11.6-3.75,5.47,1.55,12.24,11.19,13.3,17.26C270.34,280.59,270.12,281.61,269.78,281.86Z" transform="translate(-44.36 -255)"/><path class="cls-1" d="M212.35,287.84a5.25,5.25,0,1,0,5.24,5.24A5.25,5.25,0,0,0,212.35,287.84Z" transform="translate(-44.36 -255)"/><path class="cls-1" d="M240.9,287.84a5.25,5.25,0,1,0,5.24,5.24A5.24,5.24,0,0,0,240.9,287.84Z" transform="translate(-44.36 -255)"/><path class="cls-7" d="M168.55,264.91q4.81.7,1.81,12l-1.2,15v26.46h.6q15.78-6,21.09-6l1.21,1.8v1.2q0,3.72-16.89,9.63-3,1.95-3,3.6l5.72,20.5v.6a4.77,4.77,0,0,1-4.82,3.61q-6,0-5.86-11.45t-4.06-11.45h-1.2q-24.75,4.8-32.47,4.81-4.81-1-4.81-7.82,0-2.1,9.62-16.84Q160,264.92,168.55,264.91Zm-31.26,60.74v1.2q22.89-4.56,24.65-6.61l.6-1.81L160.14,289h-1.81q-10.87,11.92-18.64,29.46A14.83,14.83,0,0,0,137.29,325.65Z" transform="translate(-44.36 -255)"/><path class="cls-8" d="M306.05,328.05c-.37,0-.56-.68-.58-2.16s0-3.39.15-5.75.29-5,.49-8,.35-5.9.43-8.85.06-5.75-.06-8.4a29.31,29.31,0,0,0-.92-6.55,2.59,2.59,0,0,1,.64-1.63,2.32,2.32,0,0,1,1.29-.77,1.66,1.66,0,0,1,1.33.34,2.15,2.15,0,0,1,.73,1.57q-.54,9-.76,18.39t-.59,18.26c1.89.08,3.65.11,5.29.09s3.25-.11,4.83-.27a44.44,44.44,0,0,0,4.76-.77q2.4-.52,5.11-1.39l.24-.12v.06a1.18,1.18,0,0,1,.53,0,4.32,4.32,0,0,1,.58.19.05.05,0,0,1,.06.06,2,2,0,0,1,.74,2.09,2.57,2.57,0,0,1-1.54,1.66l-2,.25c-.39,0-.46,0-.21-.07a.12.12,0,0,0,.09,0,.24.24,0,0,1,.15,0q-3.81.25-6.42.46c-1.74.15-3.35.29-4.83.44l-4.4.43Z" transform="translate(-44.36 -255)"/><path class="cls-8" d="M362.62,321.84a12.13,12.13,0,0,1-3.38,3.72,16.1,16.1,0,0,1-4.64,2.3,19.62,19.62,0,0,1-5.32.89,20,20,0,0,1-5.38-.52,19.61,19.61,0,0,1-4.92-1.87,12.21,12.21,0,0,1-3.84-3.23,18.82,18.82,0,0,1-3.39-6.71,25.34,25.34,0,0,1-.89-7.74,28.92,28.92,0,0,1,1.42-7.88,28,28,0,0,1,3.44-7.1,22.15,22.15,0,0,1,5.23-5.47,16,16,0,0,1,6.79-2.92,9.45,9.45,0,0,1,5.17.43,12.49,12.49,0,0,1,4.33,2.83,20.24,20.24,0,0,1,3.45,4.64,32.78,32.78,0,0,1,2.49,5.84,42.39,42.39,0,0,1,1.47,6.37,37.22,37.22,0,0,1,.43,6.33,27.15,27.15,0,0,1-.67,5.69A13.73,13.73,0,0,1,362.62,321.84Zm-23.73.43a11,11,0,0,0,4.92,2.42,20.21,20.21,0,0,0,12.2-.95,10.46,10.46,0,0,0,4.4-3.13,11.61,11.61,0,0,0,2-5.26,27.23,27.23,0,0,0,.09-7,36.09,36.09,0,0,0-1.63-7.44,25.81,25.81,0,0,0-3.2-6.58,14.67,14.67,0,0,0-4.61-4.43,7.93,7.93,0,0,0-5.78-.95,14.72,14.72,0,0,0-6.3,2.76,18,18,0,0,0-4.52,5.05,21.91,21.91,0,0,0-2.59,6.42,23,23,0,0,0-.52,6.95,21.21,21.21,0,0,0,1.63,6.64A15.68,15.68,0,0,0,338.89,322.27Z" transform="translate(-44.36 -255)"/><path class="cls-8" d="M388,326.69a2.69,2.69,0,0,1-1.35,1.29,1.75,1.75,0,0,1-1.45,0,2,2,0,0,1-1.08-1.47q-2.2-4.86-4.61-10.36t-4.79-10.61q-2.4-5.1-4.62-9.35a41.81,41.81,0,0,0-4.06-6.58,2.15,2.15,0,0,1-.39-1.66,2.5,2.5,0,0,1,.67-1.38,2,2,0,0,1,1.32-.56,2.06,2.06,0,0,1,1.54.71q1.91,4.18,3.75,8.49t3.82,8.76q2,4.45,4.27,9.2t5.13,9.83c1-2.21,2-4.59,3.05-7.13s2-5.31,3-8.3,2-6.25,3-9.78,2.1-7.38,3.2-11.56a2.53,2.53,0,0,1,1.48-1,1.67,1.67,0,0,1,1.35.24,1.94,1.94,0,0,1,.74,1.17,2.43,2.43,0,0,1-.37,1.75c-.66,1.68-1.37,3.58-2.15,5.69s-1.57,4.34-2.37,6.67-1.62,4.72-2.46,7.14S393,312.65,392.2,315s-1.54,4.45-2.27,6.46S388.53,325.18,388,326.69Z" transform="translate(-44.36 -255)"/><path class="cls-8" d="M409.3,328.54a2,2,0,0,1-1.11-.62,1.49,1.49,0,0,1-.4-.92,2.13,2.13,0,0,1,.22-1,2.53,2.53,0,0,1,.67-.93,30.08,30.08,0,0,0,.19-3.87c0-1.72,0-3.67-.1-5.84s-.15-4.46-.27-6.86-.26-4.7-.4-6.92-.3-4.22-.46-6-.31-3.22-.43-4.25a2,2,0,0,1-1.23-.83,1.76,1.76,0,0,1-.28-1.23,2.49,2.49,0,0,1,.58-1.23,2.71,2.71,0,0,1,1.3-.83l1.29.13a1.36,1.36,0,0,1,1,.12,96.51,96.51,0,0,0,10.85.37q5.39-.12,11.1-.68a1.5,1.5,0,0,1,.68-.31,2.72,2.72,0,0,1,.43,0l.43.1a2,2,0,0,1,1.51.61,1.53,1.53,0,0,1,.37,1.23,2.5,2.5,0,0,1-.62,1.29,2.45,2.45,0,0,1-1.44.8,3.23,3.23,0,0,0-.46,0,3.48,3.48,0,0,1-.47,0,1.14,1.14,0,0,1-.49-.12q-5-.37-10.51-.31t-10.52.5c0,1.31-.07,2.38-.09,3.22s0,1.62,0,2.34,0,1.49.06,2.31.08,1.86.12,3.13a33.2,33.2,0,0,0,3.91.31c1.45,0,2.91,0,4.36,0s2.85-.18,4.19-.37a20,20,0,0,0,3.35-.71,2.45,2.45,0,0,1,1.75,0,1.48,1.48,0,0,1,.8,1,1.9,1.9,0,0,1-.22,1.35,2.62,2.62,0,0,1-1.29,1.14c-1.35,0-2.72,0-4.12-.09s-2.8-.1-4.21-.1-2.82.06-4.21.16a25.79,25.79,0,0,0-4.12.64c.2,3.2.41,6.5.61,9.9s.43,6.71.68,9.9c1.72.13,3.59.21,5.59.25s4,0,5.88,0,3.64-.12,5.19-.25a17.69,17.69,0,0,0,3.57-.55c.7,0,1.26,0,1.69-.06a2.74,2.74,0,0,1,.95,0,.42.42,0,0,1,.31.46,7.82,7.82,0,0,1-.18,1.29,2.3,2.3,0,0,1-1.76,1.33,16.51,16.51,0,0,1-3.56.49c-1.42.06-3,.06-4.8,0l-5.44-.16c-1.85,0-3.67,0-5.47,0A27.4,27.4,0,0,0,409.3,328.54Z" transform="translate(-44.36 -255)"/><path class="cls-9" d="M458,328.42c-.53.08-.93-.51-1.19-1.76a32,32,0,0,1-.56-5q-.15-3.17-.15-7.19t-.09-8.21q-.11-4.19-.37-8.09a46.26,46.26,0,0,0-1-6.86,2,2,0,0,1-1.23-.83,1.81,1.81,0,0,1-.27-1.23,2.4,2.4,0,0,1,.58-1.23,2.73,2.73,0,0,1,1.29-.83c1,.13,2.19.21,3.6.25s2.91.06,4.49.06,3.2,0,4.86-.06,3.26-.09,4.79-.15,3-.14,4.25-.22,2.34-.16,3.16-.25a2.63,2.63,0,0,1,.43,0l.43.1a2,2,0,0,1,1.51.61,1.53,1.53,0,0,1,.37,1.23,2.56,2.56,0,0,1-.61,1.29,2.45,2.45,0,0,1-1.45.8,3.33,3.33,0,0,0-.46,0,3.33,3.33,0,0,1-.46,0,1.07,1.07,0,0,1-.49-.12c-3.37-.25-6.87-.35-10.52-.31s-7.15.21-10.52.5c0,1.31-.07,2.38-.09,3.22s0,1.62,0,2.34,0,1.49.06,2.31.08,1.86.13,3.13a33.21,33.21,0,0,0,3.93.31c1.48,0,2.95,0,4.43-.06s2.88-.22,4.21-.4a22.45,22.45,0,0,0,3.23-.65,2.17,2.17,0,0,1,1.75.1,1.65,1.65,0,0,1,.8,1.1,2.31,2.31,0,0,1-.21,1.48,2.62,2.62,0,0,1-1.29,1.2c-1.36,0-2.73,0-4.12-.09s-2.8-.1-4.22-.1-2.82.05-4.21.16a24.87,24.87,0,0,0-4.12.64,38.25,38.25,0,0,0,.09,3.85c.11,1.53.23,3.14.37,4.82s.27,3.37.37,5.05.13,3.19.09,4.55a12.87,12.87,0,0,1-.43,3.26Q458.77,328.42,458,328.42Z" transform="translate(-44.36 -255)"/><path class="cls-9" d="M515.89,321.84a12.13,12.13,0,0,1-3.38,3.72,16.1,16.1,0,0,1-4.64,2.3,19.62,19.62,0,0,1-5.32.89,20,20,0,0,1-5.38-.52,19.32,19.32,0,0,1-4.92-1.87,12.37,12.37,0,0,1-3.85-3.23,19,19,0,0,1-3.38-6.71,25,25,0,0,1-.89-7.74,28.91,28.91,0,0,1,1.41-7.88,28,28,0,0,1,3.45-7.1,22.15,22.15,0,0,1,5.23-5.47,16,16,0,0,1,6.79-2.92,9.45,9.45,0,0,1,5.17.43,12.49,12.49,0,0,1,4.33,2.83,20.24,20.24,0,0,1,3.45,4.64,32.78,32.78,0,0,1,2.49,5.84,42.39,42.39,0,0,1,1.47,6.37,37.22,37.22,0,0,1,.43,6.33,27.83,27.83,0,0,1-.67,5.69A13.73,13.73,0,0,1,515.89,321.84Zm-23.73.43a11,11,0,0,0,4.91,2.42,20.24,20.24,0,0,0,12.21-.95,10.46,10.46,0,0,0,4.4-3.13,11.61,11.61,0,0,0,2-5.26,28.15,28.15,0,0,0,.09-7,36.09,36.09,0,0,0-1.63-7.44,25.81,25.81,0,0,0-3.2-6.58,14.67,14.67,0,0,0-4.61-4.43,7.93,7.93,0,0,0-5.78-.95,14.72,14.72,0,0,0-6.3,2.76,17.87,17.87,0,0,0-4.52,5.05,21.91,21.91,0,0,0-2.59,6.42,23,23,0,0,0-.52,6.95,20.94,20.94,0,0,0,1.63,6.64A15.56,15.56,0,0,0,492.16,322.27Z" transform="translate(-44.36 -255)"/><path class="cls-9" d="M521.24,290.78a2.24,2.24,0,0,1,.43-1.38,2.43,2.43,0,0,1,1-.83,2,2,0,0,1,1.16-.16,1.4,1.4,0,0,1,1,.65,14.43,14.43,0,0,1,5.13-2.37,20.82,20.82,0,0,1,5.84-.58,26.54,26.54,0,0,1,5.91.92,24.2,24.2,0,0,1,5.41,2.18,19.84,19.84,0,0,1,4.37,3.26,11.47,11.47,0,0,1,2.7,4.09,9.22,9.22,0,0,1,.46,4.71,11.09,11.09,0,0,1-2.33,5.07,24.71,24.71,0,0,1-4.68,4.64,26.5,26.5,0,0,1-5.38,3.11,36.11,36.11,0,0,1-6.06,2,64.17,64.17,0,0,1-6.64,1.16q2.52,1.84,5,3.54a60.21,60.21,0,0,0,5.42,3.29,2.19,2.19,0,0,1,.73,1.57,2.32,2.32,0,0,1-.46,1.44,2.09,2.09,0,0,1-1.26.8,2,2,0,0,1-1.66-.43q-1.23-1.29-2.7-2.7c-1-1-2-1.83-3-2.65s-2-1.54-2.92-2.15a17.16,17.16,0,0,0-2.3-1.35c.08.57.16,1.2.24,1.87s.14,1.35.19,2,.06,1.32.06,1.94a14.16,14.16,0,0,1-.06,1.47A2.43,2.43,0,0,1,524.5,328h-.18a1.81,1.81,0,0,1-1.11-.52,2.43,2.43,0,0,1-.55-1.14.25.25,0,0,0-.07-.18,2.55,2.55,0,0,1,.43-1.35v-.86a6.19,6.19,0,0,1,.07-.93c.08-1.55.14-3.11.18-4.67l.12-4.67c0-1.72,0-3.39-.06-5s-.19-3.18-.34-4.74-.33-3.13-.58-4.7-.49-3.23-.74-4.95a1.65,1.65,0,0,1-.83-1.23,2.05,2.05,0,0,1,.46-1.66A2.27,2.27,0,0,1,521.24,290.78Zm1.66,35.3a1.13,1.13,0,0,1,0-.25,1,1,0,0,0,0-.24l-.06.06Zm2.22-32.16q.12,5,.21,10.27c.06,3.48.26,6.93.58,10.33a23.5,23.5,0,0,0,4.31-.19,40.87,40.87,0,0,0,5.6-1.07,47.48,47.48,0,0,0,5.9-2,23.52,23.52,0,0,0,5.26-2.92,13.88,13.88,0,0,0,3.62-3.91,7.5,7.5,0,0,0,1-4.89,9.72,9.72,0,0,0-2.61-5.75,15.57,15.57,0,0,0-5.35-3.65,19,19,0,0,0-6.61-1.45,16.3,16.3,0,0,0-6.34.89,13.68,13.68,0,0,0-2.86,1.57c-.88.64-1.75,1.28-2.61,1.94a2.4,2.4,0,0,1,0,.37,1.89,1.89,0,0,0,0,.3A.18.18,0,0,1,525.12,293.92Z" transform="translate(-44.36 -255)"/><path class="cls-9" d="M604.93,290a3,3,0,0,1-.27,1.54,2.35,2.35,0,0,1-.93,1,1.74,1.74,0,0,1-1.29.19,2.12,2.12,0,0,1-1.26-1,2.9,2.9,0,0,0-1.69-2.43,7.51,7.51,0,0,0-3.2-.53,16.31,16.31,0,0,0-3.59.53,25.55,25.55,0,0,0-2.77.83,28.62,28.62,0,0,0-4.4,1.81,20.89,20.89,0,0,0-4.09,2.71,15.16,15.16,0,0,0-3.1,3.59,10.4,10.4,0,0,0-1.51,4.55,7.11,7.11,0,0,0,.71,4.52,7.29,7.29,0,0,0,2.8,2.68,14,14,0,0,0,4.15,1.44c1.57.31,3.18.58,4.82.8s3.22.49,4.74.77a14.58,14.58,0,0,1,3.94,1.29,17.41,17.41,0,0,1,4.85,3.54,6.1,6.1,0,0,1,1.69,3.35,4.06,4.06,0,0,1-.86,2.95,10,10,0,0,1-2.73,2.43,15.45,15.45,0,0,1-4,1.72,22.93,22.93,0,0,1-4.58.83,19.35,19.35,0,0,1-4.52-.15,9.57,9.57,0,0,1-3.78-1.38,1.68,1.68,0,0,1-.68-1.23c-.08-.58-.16-1.05-.25-1.42a2.7,2.7,0,0,1,.53-1.47,2.48,2.48,0,0,1,1.07-.86,1.54,1.54,0,0,1,1.26,0,2.25,2.25,0,0,1,1.08,1.13l.18.86a13.6,13.6,0,0,0,5.6,1.6,11.28,11.28,0,0,0,4.67-.64,6.61,6.61,0,0,0,3-2.12,2.91,2.91,0,0,0,.52-2.8,5.63,5.63,0,0,0-2.74-2.74,19.17,19.17,0,0,0-6.73-1.9,37.38,37.38,0,0,0-4.58-1.14,38.14,38.14,0,0,1-4.68-1.2,16.74,16.74,0,0,1-4.12-2,8.77,8.77,0,0,1-3-3.54,9.58,9.58,0,0,1-.92-4.09A13.1,13.1,0,0,1,575,300a15.56,15.56,0,0,1,1.84-3.81,18.86,18.86,0,0,1,2.68-3.23,22.66,22.66,0,0,1,3.44-2.73,33.87,33.87,0,0,1,9.87-4.52,16.43,16.43,0,0,1,5.07-.65,8.76,8.76,0,0,1,4.28,1.23A6.8,6.8,0,0,1,604.93,290Z" transform="translate(-44.36 -255)"/><path class="cls-9" d="M605.92,308.74a3.17,3.17,0,0,1-.62-1.76,1.27,1.27,0,0,1,.49-1,2.08,2.08,0,0,1,1.11-.34q.68,0,1.23,0a7.32,7.32,0,0,1,.8.07c.16,0,.12,0-.12-.1l3.32.13q.36-2.84,1-5.63a42.19,42.19,0,0,1,1.66-5.63,16.49,16.49,0,0,1,3.32-5.59,13.87,13.87,0,0,1,4.46-3.23,12.43,12.43,0,0,1,5.11-1.08,15.87,15.87,0,0,1,5.28.92,17.52,17.52,0,0,1,4.95,2.74,19.69,19.69,0,0,1,4.12,4.4,14.18,14.18,0,0,1,1.79,4.18,54.86,54.86,0,0,1,1.26,5.87c.35,2.15.6,4.42.77,6.8s.27,4.66.34,6.85.06,4.22,0,6.06-.16,3.34-.28,4.49a2.5,2.5,0,0,1-1,1.6,2.14,2.14,0,0,1-1.47.31,1.81,1.81,0,0,1-1.2-.8,2,2,0,0,1-.16-1.73q.38-4.67.68-9.5a91.42,91.42,0,0,0,.06-10.24q-3.19-.12-6.79.07t-7.26.55c-2.44.25-4.84.51-7.19.8s-4.59.57-6.68.86h-.12q-.12,2.4-.06,4.8c0,1.6.1,3.14.18,4.64s.17,2.92.25,4.27.14,2.59.18,3.69a2.56,2.56,0,0,1-.73,1.39,2.36,2.36,0,0,1-1.17.64,1.67,1.67,0,0,1-1.23-.24,2,2,0,0,1-.86-1.29q.06-4.44.09-8.8t.4-8.67a21.27,21.27,0,0,1-3.48.22A3.07,3.07,0,0,1,605.92,308.74Zm9.1-2.89a64.79,64.79,0,0,0,6.58-.37c2.33-.25,4.69-.54,7.07-.89s4.73-.71,7.07-1.08,4.55-.68,6.64-.92a30,30,0,0,0-.92-4.55,17.8,17.8,0,0,0-1.54-3.82,15,15,0,0,0-7.53-6.45,12.44,12.44,0,0,0-4.89-.86,9.75,9.75,0,0,0-4.8,1.41,11.59,11.59,0,0,0-3.35,3,18.09,18.09,0,0,0-2.3,4.15,27.55,27.55,0,0,0-1.45,5,41.43,41.43,0,0,0-.7,5.41Z" transform="translate(-44.36 -255)"/><path class="cls-9" d="M656.53,327.49a2.54,2.54,0,0,1,.12-1,10.8,10.8,0,0,1,.12-1.26c.08-.6.18-1.23.28-1.91s.2-1.31.31-1.91l.21-1.26a104.38,104.38,0,0,0,.53-14.85q-.29-7.35-1.08-15.22l-2,.22-1.66.18-1.69.22-2.18.31a2.26,2.26,0,0,1-1.33-.83,1.73,1.73,0,0,1-.3-1.23,2.37,2.37,0,0,1,.58-1.23,2.66,2.66,0,0,1,1.29-.83,14.45,14.45,0,0,0,4.43.58,59.28,59.28,0,0,0,6.21-.28c2.21-.2,4.42-.48,6.61-.83s4.07-.68,5.63-1a1.94,1.94,0,0,1,.61-.31h.19a2.1,2.1,0,0,1,1.44.55,1.8,1.8,0,0,1,.5,1.14A2.28,2.28,0,0,1,675,288a2.83,2.83,0,0,1-1.14,1h-.68v.12H673a.44.44,0,0,1-.19,0l-.12,0-2.15.06-3.72.15-3.72.19q-1.73.09-2.22.15c-.24,2.95-.37,6-.37,9.23s0,6.42.07,9.68.06,6.5.06,9.72-.13,6.28-.37,9.19a1,1,0,0,0-.77.52,2.73,2.73,0,0,1-.62.74.81.81,0,0,1-.86.09A4.64,4.64,0,0,1,656.53,327.49Z" transform="translate(-44.36 -255)"/><path class="cls-9" d="M707.87,321.84a12,12,0,0,1-3.38,3.72,16.1,16.1,0,0,1-4.64,2.3,19.62,19.62,0,0,1-5.32.89,20.07,20.07,0,0,1-5.38-.52,19.61,19.61,0,0,1-4.92-1.87,12.21,12.21,0,0,1-3.84-3.23,18.82,18.82,0,0,1-3.39-6.71,25.34,25.34,0,0,1-.89-7.74,29.31,29.31,0,0,1,1.42-7.88,28.31,28.31,0,0,1,3.44-7.1,22.33,22.33,0,0,1,5.23-5.47,16,16,0,0,1,6.79-2.92,9.45,9.45,0,0,1,5.17.43,12.49,12.49,0,0,1,4.33,2.83,20,20,0,0,1,3.45,4.64,32.78,32.78,0,0,1,2.49,5.84,41.2,41.2,0,0,1,1.47,6.37,37.22,37.22,0,0,1,.43,6.33,27.15,27.15,0,0,1-.67,5.69A13.73,13.73,0,0,1,707.87,321.84Zm-23.73.43a11,11,0,0,0,4.92,2.42,20.21,20.21,0,0,0,12.2-.95,10.4,10.4,0,0,0,4.4-3.13,11.5,11.5,0,0,0,2-5.26,27.23,27.23,0,0,0,.09-7,36.09,36.09,0,0,0-1.63-7.44,25.48,25.48,0,0,0-3.2-6.58,14.67,14.67,0,0,0-4.61-4.43,7.93,7.93,0,0,0-5.78-.95,14.72,14.72,0,0,0-6.3,2.76,18,18,0,0,0-4.52,5.05,21.62,21.62,0,0,0-2.58,6.42,22.71,22.71,0,0,0-.53,6.95,21.21,21.21,0,0,0,1.63,6.64A15.68,15.68,0,0,0,684.14,322.27Z" transform="translate(-44.36 -255)"/><path class="cls-9" d="M746.74,290a2.88,2.88,0,0,1-.28,1.54,2.27,2.27,0,0,1-.92,1,1.74,1.74,0,0,1-1.29.19,2.12,2.12,0,0,1-1.26-1,2.92,2.92,0,0,0-1.69-2.43,7.53,7.53,0,0,0-3.2-.53,16.4,16.4,0,0,0-3.6.53,26.27,26.27,0,0,0-2.77.83,28.53,28.53,0,0,0-4.39,1.81,20.6,20.6,0,0,0-4.09,2.71,15.2,15.2,0,0,0-3.11,3.59,10.39,10.39,0,0,0-1.5,4.55,7.18,7.18,0,0,0,.7,4.52,7.36,7.36,0,0,0,2.8,2.68,14.09,14.09,0,0,0,4.15,1.44c1.58.31,3.19.58,4.83.8s3.22.49,4.73.77a14.58,14.58,0,0,1,3.94,1.29,17.63,17.63,0,0,1,4.86,3.54,6.16,6.16,0,0,1,1.69,3.35,4.15,4.15,0,0,1-.86,2.95,10.07,10.07,0,0,1-2.74,2.43,15.45,15.45,0,0,1-4,1.72,22.8,22.8,0,0,1-4.58.83,19.39,19.39,0,0,1-4.52-.15,9.69,9.69,0,0,1-3.78-1.38,1.67,1.67,0,0,1-.67-1.23c-.09-.58-.17-1.05-.25-1.42a2.69,2.69,0,0,1,.52-1.47,2.51,2.51,0,0,1,1.08-.86,1.54,1.54,0,0,1,1.26,0,2.2,2.2,0,0,1,1.07,1.13l.19.86a13.56,13.56,0,0,0,5.6,1.6,11.28,11.28,0,0,0,4.67-.64,6.58,6.58,0,0,0,3-2.12,2.88,2.88,0,0,0,.52-2.8,5.6,5.6,0,0,0-2.73-2.74,19.23,19.23,0,0,0-6.74-1.9,36.93,36.93,0,0,0-4.58-1.14,38,38,0,0,1-4.67-1.2,16.57,16.57,0,0,1-4.12-2,8.69,8.69,0,0,1-3-3.54,9.44,9.44,0,0,1-.93-4.09,13.39,13.39,0,0,1,.65-4.12,15.92,15.92,0,0,1,1.84-3.81,19.33,19.33,0,0,1,2.68-3.23,23.17,23.17,0,0,1,3.44-2.73,33.92,33.92,0,0,1,4.68-2.62,33.26,33.26,0,0,1,5.19-1.9,16.53,16.53,0,0,1,5.08-.65,8.69,8.69,0,0,1,4.27,1.23A6.86,6.86,0,0,1,746.74,290Z" transform="translate(-44.36 -255)"/></svg>