<svg id="Layer_1" data-name="Layer 1" xmlns="http://www.w3.org/2000/svg" viewBox="0 0 976.83 104.3"><defs><style>.cls-1{fill:#754c28;}.cls-2,.cls-8{fill:#b91e4d;}.cls-3{fill:#e02d74;}.cls-4{fill:none;stroke:#fff;stroke-linecap:round;stroke-linejoin:round;stroke-width:4.44px;}.cls-5{fill:#fff;}.cls-6{fill:#a87c4f;}.cls-7,.cls-9{fill:#00a4a9;stroke:#00a4a9;}.cls-7,.cls-8,.cls-9{stroke-miterlimit:10;}.cls-7{stroke-width:0.69px;}.cls-8{stroke:#b91e4d;}.cls-8,.cls-9{stroke-width:2.2px;}</style></defs><title>loveforsatos-icon</title><circle class="cls-1" cx="52.15" cy="52.15" r="52.15"/><path class="cls-2" d="M132.35,296c-1-7.39-5.47-12.7-12.78-15.32-7-2.51-13.34-.71-18.77,4a53.42,53.42,0,0,0-4.29,4.57v53l.58-.49c6.67-6,13.38-11.87,20-17.89a66.15,66.15,0,0,0,11.38-12.68C131.46,306.48,133.09,301.38,132.35,296Z" transform="translate(-44.36 -255)"/><path class="cls-3" d="M96.36,289.37c-.56-.74-1.09-1.5-1.7-2.21-4.79-5.56-10.85-8.54-18.48-7.25a18.86,18.86,0,0,0-15.31,22.36,28.12,28.12,0,0,0,8.3,14.78c8.85,8.57,18,16.88,27.06,25.38l.28-.23v-53Z" transform="translate(-44.36 -255)"/><path class="cls-4" d="M132.35,296c-1-7.39-5.47-12.7-12.78-15.32-7-2.51-13.34-.71-18.77,4a53.42,53.42,0,0,0-4.29,4.57l-.15.17c-.56-.74-1.09-1.5-1.7-2.21-4.79-5.56-10.85-8.54-18.48-7.25a18.86,18.86,0,0,0-15.31,22.36,28.12,28.12,0,0,0,8.3,14.78c8.85,8.57,18,16.88,27.06,25.38l.28-.23.58-.49c6.67-6,13.38-11.87,20-17.89a66.15,66.15,0,0,0,11.38-12.68C131.46,306.48,133.09,301.38,132.35,296Z" transform="translate(-44.36 -255)"/><polygon class="cls-5" points="154.26 22.99 145.79 26.88 139.16 28.48 136.87 23.44 140.76 13.15 147.4 6.06 155.86 3.54 163.18 5.6 166.84 9.49 175.99 8.12 186.29 7.43 194.53 9.95 200.7 7.2 207.34 3.31 213.74 4.22 221.52 10.63 227.24 20.24 228.38 26.42 223.35 29.16 214.2 23.67 205.05 16.81 211.23 30.77 218.09 55.7 219.69 75.15 215.34 86.59 205.51 95.97 192.01 100.54 174.62 100.09 157.69 95.05 149.22 84.99 143.73 69.2 147.17 52.04 154.26 22.99"/><path class="cls-6" d="M275.4,278c-1.4-8-9.37-19.33-17.18-21.54-10.35-2.94-17,5.14-17.74,6.07a26.43,26.43,0,0,0-13.42-2.8,26.23,26.23,0,0,0-13.43,2.8c-.72-.93-7.38-9-17.74-6.07-7.8,2.21-15.77,13.59-17.17,21.54-.84,4.79.87,7.15,2.45,8.29a6.25,6.25,0,0,0,3.72,1.27c3,0,5.8-2.2,8.2-4.07a26,26,0,0,1,4.5-3c-.56,1.24-1.1,2.52-1.6,3.87-10.47,28.43-11.42,48.26-2.88,60.64,6,8.66,16.48,13.34,31.25,13.9l3.11.08,2.72,0v-.07c14.54-.65,24.9-5.31,30.82-13.89,8.53-12.38,7.59-32.21-2.88-60.64-.5-1.34-1-2.62-1.6-3.87a25.61,25.61,0,0,1,4.5,3c2.4,1.86,5.22,4.06,8.2,4.06a6.27,6.27,0,0,0,3.72-1.27C274.53,285.13,276.24,282.77,275.4,278Zm-85.65,1.21c-3,2.36-4.53,3.31-5.42,2.68-.33-.25-.56-1.27-.26-2.95,1.06-6.07,7.83-15.71,13.3-17.26,6.07-1.71,10.34,2.34,11.6,3.75a34.65,34.65,0,0,0-8.2,9.11C196.46,274,192.79,276.82,189.75,279.18Zm66.79,62.68c-4.94,7.17-14.05,11-27,11.52v-14.1l7.64-9.37a8.16,8.16,0,0,0-6.32-13.32h-8.08a8.16,8.16,0,0,0-6.32,13.32l7.65,9.37v14.08c-12.7-.58-21.66-4.42-26.55-11.5-7.45-10.82-6.31-29,3.51-55.68,3.07-8.34,7.49-14.33,13.13-17.81a21.78,21.78,0,0,1,11.3-3.3c.57,0,1,0,1.31.05l.24,0,.24,0a21.31,21.31,0,0,1,12.61,3.25c5.64,3.48,10.05,9.47,13.12,17.81C262.85,312.83,264,331,256.54,341.86Zm13.24-60c-.87.63-2.38-.31-5.42-2.68s-6.71-5.18-11-4.67a34.83,34.83,0,0,0-8.2-9.11c1.26-1.41,5.53-5.46,11.6-3.75,5.47,1.55,12.24,11.19,13.3,17.26C270.34,280.59,270.12,281.61,269.78,281.86Z" transform="translate(-44.36 -255)"/><path class="cls-1" d="M212.35,287.84a5.25,5.25,0,1,0,5.24,5.24A5.25,5.25,0,0,0,212.35,287.84Z" transform="translate(-44.36 -255)"/><path class="cls-1" d="M240.9,287.84a5.25,5.25,0,1,0,5.24,5.24A5.24,5.24,0,0,0,240.9,287.84Z" transform="translate(-44.36 -255)"/><path class="cls-7" d="M168.55,264.91q4.81.7,1.81,12l-1.2,15v26.46h.6q15.78-6,21.09-6l1.21,1.8v1.2q0,3.72-16.89,9.63-3,1.95-3,3.6l5.72,20.5v.6a4.77,4.77,0,0,1-4.82,3.61q-6,0-5.86-11.45t-4.06-11.45h-1.2q-24.75,4.8-32.47,4.81-4.81-1-4.81-7.82,0-2.1,9.62-16.84Q160,264.92,168.55,264.91Zm-31.26,60.74v1.2q22.89-4.56,24.65-6.61l.6-1.81L160.14,289h-1.81q-10.87,11.92-18.64,29.46A14.83,14.83,0,0,0,137.29,325.65Z" transform="translate(-44.36 -255)"/><path class="cls-8" d="M297.75,343.84c-.61.07-.93-1.11-1-3.52s0-5.56.25-9.43.47-8.21.81-13.05.57-9.68.71-14.52.1-9.42-.11-13.75a47.76,47.76,0,0,0-1.51-10.74,4.27,4.27,0,0,1,1.06-2.67,3.71,3.71,0,0,1,2.12-1.26,2.73,2.73,0,0,1,2.16.55,3.52,3.52,0,0,1,1.21,2.58q-.9,14.72-1.26,30.13t-1,29.94q4.64.19,8.66.15t7.92-.45a72,72,0,0,0,7.81-1.26q3.93-.85,8.36-2.27l.41-.2v.1a1.75,1.75,0,0,1,.85,0,5.55,5.55,0,0,1,1,.3c.07,0,.1,0,.1.1a3.32,3.32,0,0,1,1.21,3.43,4.17,4.17,0,0,1-2.52,2.72c-1.54.2-2.64.34-3.27.4s-.76,0-.36-.1a.21.21,0,0,0,.16,0,.4.4,0,0,1,.25-.05q-6.26.4-10.54.76c-2.85.23-5.49.47-7.91.7l-7.2.71C303.78,343.32,301,343.58,297.75,343.84Z" transform="translate(-44.36 -255)"/><path class="cls-8" d="M390.48,333.66a19.5,19.5,0,0,1-5.55,6.1,26.18,26.18,0,0,1-7.61,3.78,32.68,32.68,0,0,1-8.71,1.46,33.54,33.54,0,0,1-8.82-.85,31.85,31.85,0,0,1-8.07-3.08,20.17,20.17,0,0,1-6.3-5.29,30.89,30.89,0,0,1-5.54-11,41.1,41.1,0,0,1-1.46-12.7,47.47,47.47,0,0,1,2.32-12.9,46.15,46.15,0,0,1,5.64-11.64,36.25,36.25,0,0,1,8.57-9,26.44,26.44,0,0,1,11.14-4.79,15.51,15.51,0,0,1,8.46.71,20.73,20.73,0,0,1,7.11,4.63,32.59,32.59,0,0,1,5.64,7.61,53.21,53.21,0,0,1,4.09,9.58,67.78,67.78,0,0,1,2.41,10.43,60.74,60.74,0,0,1,.71,10.38,45,45,0,0,1-1.11,9.33A22.59,22.59,0,0,1,390.48,333.66Zm-38.91.71a17.83,17.83,0,0,0,8.07,4,32.94,32.94,0,0,0,10.13.76,32.49,32.49,0,0,0,9.87-2.32,17.1,17.1,0,0,0,7.21-5.14,18.86,18.86,0,0,0,3.23-8.62,45.69,45.69,0,0,0,.15-11.49,59.29,59.29,0,0,0-2.67-12.2,42.55,42.55,0,0,0-5.25-10.78,24.09,24.09,0,0,0-7.56-7.26,13.06,13.06,0,0,0-9.47-1.56A24.21,24.21,0,0,0,355,284.27a29.58,29.58,0,0,0-7.41,8.27,35.67,35.67,0,0,0-4.23,10.53,37.2,37.2,0,0,0-.86,11.39,34.38,34.38,0,0,0,2.67,10.89A25.62,25.62,0,0,0,351.57,334.37Z" transform="translate(-44.36 -255)"/><path class="cls-8" d="M432,341.63a4.42,4.42,0,0,1-2.21,2.11,2.88,2.88,0,0,1-2.37,0,3.25,3.25,0,0,1-1.77-2.42q-3.63-7.95-7.56-17T410.23,307q-3.93-8.35-7.56-15.32A70.32,70.32,0,0,0,396,280.85a3.56,3.56,0,0,1-.65-2.72,4.09,4.09,0,0,1,1.1-2.27,3.16,3.16,0,0,1,2.17-.91,3.38,3.38,0,0,1,2.52,1.16q3.12,6.86,6.15,13.91t6.25,14.36q3.22,7.32,7,15.07T429,335.58q2.52-5.44,5-11.69t4.94-13.61q2.46-7.36,5-16t5.24-18.95a4.13,4.13,0,0,1,2.42-1.66,2.78,2.78,0,0,1,2.22.4A3.2,3.2,0,0,1,455,276a4,4,0,0,1-.6,2.87q-1.62,4.14-3.53,9.32T447,299.09q-2,5.75-4,11.69t-4,11.59Q437,328,435.23,333T432,341.63Z" transform="translate(-44.36 -255)"/><path class="cls-8" d="M467,344.65a3.42,3.42,0,0,1-1.82-1,2.52,2.52,0,0,1-.65-1.51,3.53,3.53,0,0,1,.35-1.71A4.28,4.28,0,0,1,466,338.9a49.15,49.15,0,0,0,.3-6.35q0-4.23-.15-9.57t-.45-11.24q-.3-5.89-.66-11.34t-.75-9.88q-.4-4.42-.71-6.95a3.32,3.32,0,0,1-2-1.36,2.89,2.89,0,0,1-.46-2,4,4,0,0,1,1-2,4.36,4.36,0,0,1,2.12-1.36l2.11.2a2.26,2.26,0,0,1,1.62.2,156.3,156.3,0,0,0,17.79.6q8.82-.19,18.19-1.11a2.44,2.44,0,0,1,1.11-.5,4.68,4.68,0,0,1,.7.05l.71.15a3.34,3.34,0,0,1,2.47,1,2.53,2.53,0,0,1,.6,2,4.07,4.07,0,0,1-1,2.11,4,4,0,0,1-2.37,1.31,6.06,6.06,0,0,0-.76.05,4.62,4.62,0,0,1-.76,0,1.72,1.72,0,0,1-.8-.2q-8.26-.6-17.24-.5t-17.23.81c-.07,2.15-.12,3.91-.15,5.29s0,2.65,0,3.83,0,2.43.1,3.78.13,3.06.2,5.14a57.3,57.3,0,0,0,6.4.5c2.38.07,4.77.05,7.15-.05s4.67-.3,6.86-.6a34.63,34.63,0,0,0,5.49-1.16,3.9,3.9,0,0,1,2.87.05,2.36,2.36,0,0,1,1.31,1.61,3.09,3.09,0,0,1-.35,2.22,4.34,4.34,0,0,1-2.11,1.86q-3.33,0-6.76-.15t-6.9-.15q-3.48,0-6.91.25a41.59,41.59,0,0,0-6.75,1.06q.51,7.86,1,16.23c.33,5.58.7,11,1.11,16.23q4.23.3,9.17.4t9.62,0q4.69-.11,8.52-.4a30.65,30.65,0,0,0,5.85-.91c1.14,0,2.06,0,2.77-.1a4.35,4.35,0,0,1,1.56.05.69.69,0,0,1,.51.75,12.07,12.07,0,0,1-.31,2.12c-.33,1-1.29,1.73-2.87,2.17a26.45,26.45,0,0,1-5.84.8q-3.48.15-7.87,0t-8.92-.25c-3-.06-6-.05-9,.05A43.86,43.86,0,0,0,467,344.65Z" transform="translate(-44.36 -255)"/><path class="cls-9" d="M546.75,344.45c-.88.13-1.53-.82-2-2.87a52.8,52.8,0,0,1-.9-8.27q-.25-5.19-.26-11.79t-.15-13.46q-.15-6.85-.6-13.25a75.06,75.06,0,0,0-1.56-11.24,3.32,3.32,0,0,1-2-1.36,2.93,2.93,0,0,1-.45-2,4,4,0,0,1,.95-2,4.41,4.41,0,0,1,2.12-1.36q2.42.3,5.9.4t7.35.1q3.89,0,8-.1T571,277q3.78-.15,7-.36c2.12-.13,3.85-.26,5.2-.4a4.79,4.79,0,0,1,.7.05l.71.15a3.36,3.36,0,0,1,2.47,1,2.53,2.53,0,0,1,.6,2,4.09,4.09,0,0,1-1,2.11,4,4,0,0,1-2.37,1.31,5.78,5.78,0,0,0-.75.05,4.62,4.62,0,0,1-.76,0,1.66,1.66,0,0,1-.8-.2q-8.26-.6-17.24-.5t-17.24.81c-.06,2.15-.11,3.91-.15,5.29s0,2.65,0,3.83,0,2.43.1,3.78.14,3.06.2,5.14a57.88,57.88,0,0,0,6.46.5q3.62.11,7.25-.1t6.91-.66a36.93,36.93,0,0,0,5.29-1.05,3.52,3.52,0,0,1,2.87.15,2.76,2.76,0,0,1,1.31,1.81,3.69,3.69,0,0,1-.35,2.42,4.19,4.19,0,0,1-2.12,2q-3.33,0-6.75-.15t-6.91-.16c-2.31,0-4.62.09-6.9.26a41.23,41.23,0,0,0-6.75,1,59.62,59.62,0,0,0,.15,6.3q.25,3.78.6,7.92c.24,2.75.44,5.51.61,8.26s.21,5.24.15,7.46a21.16,21.16,0,0,1-.71,5.34C548.26,343.78,547.62,344.45,546.75,344.45Z" transform="translate(-44.36 -255)"/><path class="cls-9" d="M641.7,333.66a19.62,19.62,0,0,1-5.55,6.1,26.18,26.18,0,0,1-7.61,3.78,32.76,32.76,0,0,1-8.72,1.46,33.62,33.62,0,0,1-8.82-.85,31.92,31.92,0,0,1-8.06-3.08,20.17,20.17,0,0,1-6.3-5.29,30.89,30.89,0,0,1-5.54-11,40.8,40.8,0,0,1-1.46-12.7,47.45,47.45,0,0,1,2.31-12.9,46.18,46.18,0,0,1,5.65-11.64,36.07,36.07,0,0,1,8.57-9,26.4,26.4,0,0,1,11.13-4.79,15.54,15.54,0,0,1,8.47.71,20.73,20.73,0,0,1,7.11,4.63,33.16,33.16,0,0,1,5.64,7.61,52.48,52.48,0,0,1,4.08,9.58A67.81,67.81,0,0,1,645,306.75a61.78,61.78,0,0,1,.71,10.38,45,45,0,0,1-1.11,9.33A22.59,22.59,0,0,1,641.7,333.66Zm-38.91.71a17.84,17.84,0,0,0,8.06,4,33,33,0,0,0,10.13.76,32.56,32.56,0,0,0,9.88-2.32,17.1,17.1,0,0,0,7.21-5.14,18.86,18.86,0,0,0,3.22-8.62,44.77,44.77,0,0,0,.15-11.49,58,58,0,0,0-2.67-12.2,42.2,42.2,0,0,0-5.24-10.78A24.09,24.09,0,0,0,626,281.3a13.07,13.07,0,0,0-9.47-1.56,24.21,24.21,0,0,0-10.33,4.53,29.58,29.58,0,0,0-7.41,8.27,36,36,0,0,0-4.24,10.53,37.51,37.51,0,0,0-.85,11.39,34.38,34.38,0,0,0,2.67,10.89A25.62,25.62,0,0,0,602.79,334.37Z" transform="translate(-44.36 -255)"/><path class="cls-9" d="M650.46,282.76a3.74,3.74,0,0,1,.71-2.27,4,4,0,0,1,1.66-1.36,3.57,3.57,0,0,1,1.92-.25,2.28,2.28,0,0,1,1.56,1.06,23.77,23.77,0,0,1,8.42-3.88,34.07,34.07,0,0,1,9.57-1,43.93,43.93,0,0,1,9.68,1.51,40.26,40.26,0,0,1,8.87,3.58,32.3,32.3,0,0,1,7.15,5.34,19,19,0,0,1,4.44,6.71,15.14,15.14,0,0,1,.75,7.71,18.25,18.25,0,0,1-3.83,8.31,39.64,39.64,0,0,1-7.66,7.61,43.29,43.29,0,0,1-8.81,5.09,58.27,58.27,0,0,1-9.93,3.23,107.34,107.34,0,0,1-10.89,1.91q4.14,3,8.16,5.8a97.24,97.24,0,0,0,8.87,5.39,3.6,3.6,0,0,1,1.21,2.57,3.85,3.85,0,0,1-.75,2.37,3.47,3.47,0,0,1-2.07,1.31,3.32,3.32,0,0,1-2.72-.7c-1.34-1.42-2.82-2.89-4.43-4.44s-3.26-3-4.94-4.33-3.28-2.52-4.79-3.53a29.76,29.76,0,0,0-3.78-2.22c.13.94.27,2,.4,3.08s.24,2.21.3,3.32.11,2.17.11,3.18a22,22,0,0,1-.11,2.42,4,4,0,0,1-3.72,3.42h-.31a3.08,3.08,0,0,1-1.81-.85,4.25,4.25,0,0,1-.91-1.87.4.4,0,0,0-.1-.3,4.12,4.12,0,0,1,.71-2.22v-1.41a11.7,11.7,0,0,1,.1-1.51c.13-2.55.23-5.11.3-7.66s.13-5.11.2-7.66c.07-2.82,0-5.55-.1-8.17s-.32-5.2-.55-7.76-.56-5.12-1-7.71-.81-5.29-1.21-8.11a2.69,2.69,0,0,1-1.36-2,3.35,3.35,0,0,1,.75-2.72A3.85,3.85,0,0,1,650.46,282.76Zm2.72,57.86a1.45,1.45,0,0,1,.06-.41,1.75,1.75,0,0,0,0-.4l-.11.1Zm3.63-52.72q.21,8.27.36,16.84t1,16.93a39.73,39.73,0,0,0,7.06-.3,67.87,67.87,0,0,0,9.17-1.77,77.86,77.86,0,0,0,9.68-3.22,38.8,38.8,0,0,0,8.62-4.79,22.65,22.65,0,0,0,5.94-6.4,12.3,12.3,0,0,0,1.66-8,15.81,15.81,0,0,0-4.28-9.43,25.47,25.47,0,0,0-8.77-6,31.39,31.39,0,0,0-10.83-2.36A26.38,26.38,0,0,0,666,280.85a21.53,21.53,0,0,0-4.69,2.57c-1.45,1-2.87,2.1-4.28,3.17a3.15,3.15,0,0,1-.06.61,3.64,3.64,0,0,0-.05.5A.26.26,0,0,1,656.81,287.9Z" transform="translate(-44.36 -255)"/><path class="cls-9" d="M787.64,281.45a4.75,4.75,0,0,1-.45,2.52,3.83,3.83,0,0,1-1.51,1.66,2.82,2.82,0,0,1-2.12.31,3.52,3.52,0,0,1-2.07-1.56,4.79,4.79,0,0,0-2.77-4,12.37,12.37,0,0,0-5.24-.85,27.63,27.63,0,0,0-5.9.85c-2,.51-3.46,1-4.53,1.36a47.48,47.48,0,0,0-7.21,3,34,34,0,0,0-6.7,4.43,24.87,24.87,0,0,0-5.09,5.9,17,17,0,0,0-2.47,7.46q-.51,4.64,1.16,7.41a11.91,11.91,0,0,0,4.58,4.38,23,23,0,0,0,6.81,2.37q3.87.75,7.91,1.31c2.69.37,5.27.79,7.76,1.26a23.38,23.38,0,0,1,6.45,2.12,28.76,28.76,0,0,1,8,5.79,10.1,10.1,0,0,1,2.78,5.5,6.77,6.77,0,0,1-1.42,4.83,16.07,16.07,0,0,1-4.48,4,25.53,25.53,0,0,1-6.5,2.83,38.31,38.31,0,0,1-7.51,1.36,32.51,32.51,0,0,1-7.41-.25,15.56,15.56,0,0,1-6.2-2.27,2.8,2.8,0,0,1-1.11-2c-.13-.94-.27-1.71-.4-2.32a4.41,4.41,0,0,1,.86-2.41,4.08,4.08,0,0,1,1.76-1.42,2.66,2.66,0,0,1,2.07,0,3.75,3.75,0,0,1,1.76,1.87l.3,1.41a22.41,22.41,0,0,0,9.17,2.62,18.63,18.63,0,0,0,7.67-1.06,10.82,10.82,0,0,0,4.88-3.47,4.74,4.74,0,0,0,.86-4.59q-.81-2.37-4.48-4.49t-11-3.12a67.55,67.55,0,0,0-7.51-1.87,59.2,59.2,0,0,1-7.66-2,27.43,27.43,0,0,1-6.75-3.28,14.34,14.34,0,0,1-4.89-5.79,15.61,15.61,0,0,1-1.51-6.71,22,22,0,0,1,1-6.75,25.94,25.94,0,0,1,3-6.25,31.2,31.2,0,0,1,4.38-5.29,37.08,37.08,0,0,1,5.65-4.48,55.67,55.67,0,0,1,7.66-4.29,54.89,54.89,0,0,1,8.51-3.12,27.28,27.28,0,0,1,8.32-1.06,14.34,14.34,0,0,1,7,2A11.24,11.24,0,0,1,787.64,281.45Z" transform="translate(-44.36 -255)"/><path class="cls-9" d="M789.25,312.19a5.16,5.16,0,0,1-1-2.87,2.07,2.07,0,0,1,.81-1.56,3.24,3.24,0,0,1,1.81-.55,17,17,0,0,1,2,0c.61,0,1,.06,1.31.1s.2,0-.2-.16l5.44.21c.41-3.09.94-6.17,1.61-9.23a70.23,70.23,0,0,1,2.73-9.22,26.94,26.94,0,0,1,5.44-9.17,22.57,22.57,0,0,1,7.31-5.29,20.34,20.34,0,0,1,8.36-1.77,26.07,26.07,0,0,1,8.67,1.51,28.86,28.86,0,0,1,8.11,4.49,32.12,32.12,0,0,1,6.76,7.21,23.4,23.4,0,0,1,2.92,6.85,87.51,87.51,0,0,1,2.07,9.63c.57,3.52,1,7.24,1.26,11.13s.45,7.65.55,11.24.1,6.91,0,9.93-.25,5.48-.45,7.36a4,4,0,0,1-1.72,2.62,3.49,3.49,0,0,1-2.41.5,2.87,2.87,0,0,1-2-1.31,3.2,3.2,0,0,1-.25-2.82c.4-5.1.77-10.3,1.11-15.57a155.45,155.45,0,0,0,.1-16.78c-3.5-.14-7.21-.1-11.14.1s-7.9.5-11.89.9-7.93.85-11.8,1.32-7.51.94-10.93,1.41h-.2c-.14,2.62-.17,5.24-.11,7.86s.17,5.16.31,7.61.27,4.79.4,7,.24,4.24.3,6.05a4.21,4.21,0,0,1-1.21,2.27,4,4,0,0,1-1.91,1.06,2.77,2.77,0,0,1-2-.41,3.33,3.33,0,0,1-1.41-2.11q.11-7.26.15-14.42c0-4.77.25-9.5.66-14.21a34.92,34.92,0,0,1-5.7.35C791.22,313.42,789.92,313,789.25,312.19Zm14.92-4.73a101.47,101.47,0,0,0,10.78-.61q5.74-.6,11.6-1.46t11.59-1.76q5.75-.92,10.88-1.52a49.84,49.84,0,0,0-1.51-7.45,29.31,29.31,0,0,0-2.52-6.25,23.92,23.92,0,0,0-5.24-6.3,24.46,24.46,0,0,0-7.11-4.29,20.71,20.71,0,0,0-8-1.41,15.93,15.93,0,0,0-7.86,2.32,18.77,18.77,0,0,0-5.49,4.94,29.05,29.05,0,0,0-3.78,6.8,45.42,45.42,0,0,0-2.37,8.12,69.35,69.35,0,0,0-1.16,8.87Z" transform="translate(-44.36 -255)"/><path class="cls-9" d="M872.21,342.94a4.1,4.1,0,0,1,.2-1.72,16.21,16.21,0,0,1,.2-2.06c.13-1,.28-2,.45-3.13s.34-2.15.51-3.12.28-1.67.35-2.07a170.18,170.18,0,0,0,.86-24.34q-.46-12-1.77-24.95l-3.22.36-2.72.3c-.88.1-1.8.22-2.78.35l-3.57.51a3.65,3.65,0,0,1-2.17-1.37,2.75,2.75,0,0,1-.51-2,4.06,4.06,0,0,1,1-2,4.41,4.41,0,0,1,2.12-1.36,22.92,22.92,0,0,0,7.26,1c3.15,0,6.55-.12,10.18-.45s7.24-.79,10.83-1.37,6.67-1.12,9.22-1.66a3.56,3.56,0,0,1,1-.5h.3a3.45,3.45,0,0,1,2.37.9,2.82,2.82,0,0,1,.81,1.87,3.67,3.67,0,0,1-.61,2.12,4.43,4.43,0,0,1-1.86,1.66h-1.11v.2h-.3a.58.58,0,0,1-.3-.05.54.54,0,0,0-.21-.05c-.47,0-1.64,0-3.52.1s-3.92.15-6.1.25-4.22.2-6.1.31-3.09.18-3.63.25q-.6,7.26-.6,15.12t.1,15.87q.1,8,.1,15.93t-.61,15.07a1.67,1.67,0,0,0-1.26.85,4.4,4.4,0,0,1-1,1.21,1.38,1.38,0,0,1-1.41.15A7.48,7.48,0,0,1,872.21,342.94Z" transform="translate(-44.36 -255)"/><path class="cls-9" d="M956.37,333.66a19.5,19.5,0,0,1-5.55,6.1,26.18,26.18,0,0,1-7.61,3.78A32.68,32.68,0,0,1,934.5,345a33.54,33.54,0,0,1-8.82-.85,31.85,31.85,0,0,1-8.07-3.08,20.17,20.17,0,0,1-6.3-5.29,30.89,30.89,0,0,1-5.54-11,41.1,41.1,0,0,1-1.46-12.7,47.47,47.47,0,0,1,2.32-12.9,46.15,46.15,0,0,1,5.64-11.64,36.25,36.25,0,0,1,8.57-9A26.49,26.49,0,0,1,932,273.79a15.51,15.51,0,0,1,8.46.71,20.73,20.73,0,0,1,7.11,4.63,32.59,32.59,0,0,1,5.64,7.61,53.21,53.21,0,0,1,4.09,9.58,67.78,67.78,0,0,1,2.41,10.43,60.74,60.74,0,0,1,.71,10.38,45,45,0,0,1-1.11,9.33A22.59,22.59,0,0,1,956.37,333.66Zm-38.91.71a17.83,17.83,0,0,0,8.07,4,32.94,32.94,0,0,0,10.13.76,32.49,32.49,0,0,0,9.87-2.32,17.1,17.1,0,0,0,7.21-5.14A18.86,18.86,0,0,0,956,323a45.69,45.69,0,0,0,.15-11.49,59.29,59.29,0,0,0-2.67-12.2,42.55,42.55,0,0,0-5.25-10.78,24.09,24.09,0,0,0-7.56-7.26,13.06,13.06,0,0,0-9.47-1.56,24.21,24.21,0,0,0-10.33,4.53,29.58,29.58,0,0,0-7.41,8.27,35.67,35.67,0,0,0-4.23,10.53,37.2,37.2,0,0,0-.86,11.39A34.38,34.38,0,0,0,911,325.35,25.62,25.62,0,0,0,917.46,334.37Z" transform="translate(-44.36 -255)"/><path class="cls-9" d="M1020.07,281.45a5,5,0,0,1-.45,2.52,3.79,3.79,0,0,1-1.52,1.66,2.8,2.8,0,0,1-2.11.31,3.49,3.49,0,0,1-2.07-1.56,4.81,4.81,0,0,0-2.77-4,12.37,12.37,0,0,0-5.24-.85,27.54,27.54,0,0,0-5.9.85c-2,.51-3.46,1-4.54,1.36a47.81,47.81,0,0,0-7.2,3,33.7,33.7,0,0,0-6.7,4.43,24.87,24.87,0,0,0-5.09,5.9,16.92,16.92,0,0,0-2.47,7.46q-.51,4.64,1.16,7.41a11.84,11.84,0,0,0,4.58,4.38,23,23,0,0,0,6.8,2.37q3.88.75,7.92,1.31t7.76,1.26a23.49,23.49,0,0,1,6.45,2.12,28.76,28.76,0,0,1,8,5.79,10,10,0,0,1,2.77,5.5,6.71,6.71,0,0,1-1.41,4.83,16.21,16.21,0,0,1-4.48,4,25.53,25.53,0,0,1-6.5,2.83,38.31,38.31,0,0,1-7.51,1.36,32.49,32.49,0,0,1-7.41-.25,15.56,15.56,0,0,1-6.2-2.27,2.76,2.76,0,0,1-1.11-2c-.13-.94-.27-1.71-.4-2.32a4.4,4.4,0,0,1,.85-2.41A4.16,4.16,0,0,1,987,335a2.64,2.64,0,0,1,2.06,0,3.73,3.73,0,0,1,1.77,1.87l.3,1.41a22.41,22.41,0,0,0,9.17,2.62,18.55,18.55,0,0,0,7.66-1.06,10.91,10.91,0,0,0,4.89-3.47,4.74,4.74,0,0,0,.86-4.59c-.54-1.58-2-3.08-4.49-4.49s-6.13-2.45-11-3.12a68.11,68.11,0,0,0-7.51-1.87,59.2,59.2,0,0,1-7.66-2,27.33,27.33,0,0,1-6.76-3.28,14.24,14.24,0,0,1-4.88-5.79,15.62,15.62,0,0,1-1.52-6.71,22,22,0,0,1,1.06-6.75,25.94,25.94,0,0,1,3-6.25,31.2,31.2,0,0,1,4.38-5.29,37.45,37.45,0,0,1,5.64-4.48,56.39,56.39,0,0,1,7.67-4.29,54.89,54.89,0,0,1,8.51-3.12,27.28,27.28,0,0,1,8.32-1.06,14.34,14.34,0,0,1,7,2A11.24,11.24,0,0,1,1020.07,281.45Z" transform="translate(-44.36 -255)"/></svg>